<svg width="48" height="48" viewBox="0 0 48 48" fill="none" xmlns="http://www.w3.org/2000/svg">
<path d="M12 17.4211L24 7L36 17.4211M15.1582 14.6826V25.8421C15.1582 26.9467 16.0536 27.8421 17.1582 27.8421H31.1582C32.2628 27.8421 33.1582 26.9467 33.1582 25.8421V14.9526L23.9877 7L15.1582 14.6826Z" stroke="#1E1D21" stroke-width="2" stroke-linejoin="round"/>
<path d="M6.5 32H41.5M6 3H42V45H6V3Z" stroke="#1E1D21" stroke-width="2" stroke-linejoin="round"/>
<path d="M18 37H38M29 41H38M18 41H27M14 39C14 40.1046 13.1046 41 12 41C10.8954 41 10 40.1046 10 39C10 37.8954 10.8954 37 12 37C13.1046 37 14 37.8954 14 39Z" stroke="#1E1D21" stroke-width="2"/>
</svg>
